<svg class="hidden" width="0" height="0">
	<symbol id="svg-menu" viewBox="0 0 35 23" xmlns="http://www.w3.org/2000/svg">
		<path d="M0.625 0.25H34.375V4H0.625V0.25ZM0.625 9.625H34.375V13.375H0.625V9.625ZM0.625 19H34.375V22.75H0.625V19Z" />
	</symbol>
	<symbol id="svg-youtube" xmlns="http://www.w3.org/2000/svg" viewBox="0 0 68 48">
		<path d="M66.52,7.74c-0.78-2.93-2.49-5.41-5.42-6.19C55.79,.13,34,0,34,0S12.21,.13,6.9,1.55 C3.97,2.33,2.27,4.81,1.48,7.74C0.06,13.05,0,24,0,24s0.06,10.95,1.48,16.26c0.78,2.93,2.49,5.41,5.42,6.19 C12.21,47.87,34,48,34,48s21.79-0.13,27.1-1.55c2.93-0.78,4.64-3.26,5.42-6.19C67.94,34.95,68,24,68,24S67.94,13.05,66.52,7.74z" fill="#ff0000" />
		<path d="M 45,24 27,14 27,34" fill="#ffffff" />
	</symbol>
	<symbol id="svg-marker" viewBox="0 0 10 15" xmlns="http://www.w3.org/2000/svg">
		<path d="M4.99998 0.383301C2.41998 0.383301 0.333313 2.60326 0.333313 5.34806C0.333313 9.07163 4.99998 14.5683 4.99998 14.5683C4.99998 14.5683 9.66665 9.07163 9.66665 5.34806C9.66665 2.60326 7.57998 0.383301 4.99998 0.383301ZM4.99998 7.12119C4.07998 7.12119 3.33331 6.32683 3.33331 5.34806C3.33331 4.36929 4.07998 3.57493 4.99998 3.57493C5.91998 3.57493 6.66665 4.36929 6.66665 5.34806C6.66665 6.32683 5.91998 7.12119 4.99998 7.12119Z" />
	</symbol>
	<symbol id="svg-telephone" viewBox="0 0 12 14" xmlns="http://www.w3.org/2000/svg">
		<path d="M11.34 9.66188C10.52 9.66188 9.72667 9.52003 8.98667 9.2647C8.75333 9.17959 8.49333 9.24342 8.31333 9.43492L7.26667 10.8321C5.38 9.87465 3.61333 8.06606 2.67333 5.98796L3.97333 4.8106C4.15333 4.61201 4.20667 4.3354 4.13333 4.08716C3.88667 3.29989 3.76 2.45589 3.76 1.58351C3.76 1.20051 3.46 0.881348 3.1 0.881348H0.793333C0.433333 0.881348 0 1.05157 0 1.58351C0 8.17245 5.15333 13.6479 11.34 13.6479C11.8133 13.6479 12 13.201 12 12.811V10.364C12 9.98104 11.7 9.66188 11.34 9.66188Z" />
	</symbol>
	<symbol id="svg-mail" viewBox="0 0 14 12" xmlns="http://www.w3.org/2000/svg">
		<path d="M12.3333 0.250977H1.66665C0.933313 0.250977 0.33998 0.889302 0.33998 1.66948L0.333313 10.1805C0.333313 10.9607 0.933313 11.599 1.66665 11.599H12.3333C13.0666 11.599 13.6666 10.9607 13.6666 10.1805V1.66948C13.6666 0.889302 13.0666 0.250977 12.3333 0.250977ZM12.3333 3.08798L6.99998 6.63424L1.66665 3.08798V1.66948L6.99998 5.21573L12.3333 1.66948V3.08798Z" />
	</symbol>
	<symbol id="svg-viber" viewBox="0 0 25 25" xmlns="http://www.w3.org/2000/svg">
		<path d="M11.842 0.00363823C9.72818 0.02786 5.18359 0.357588 2.64172 2.57114C0.750948 4.34949 0.0907851 6.97872 0.0134094 10.2299C-0.0507961 13.4694 -0.128172 19.5529 6.04954 21.2094V23.7323C6.04954 23.7323 6.01085 24.7418 6.71382 24.9489C7.57977 25.2091 8.07283 24.4324 8.89598 23.598L10.4311 21.9501C14.658 22.2837 17.8954 21.5149 18.2683 21.4008C19.126 21.1406 23.9571 20.5546 24.7465 14.4703C25.5565 8.18668 24.3522 4.2276 22.1783 2.43675H22.1651C21.5091 1.86324 18.8725 0.0395802 12.9821 0.0192652C12.9821 0.0192652 12.545 -0.00886331 11.842 0.00285688V0.00363823ZM11.9145 1.77026C12.5145 1.76636 12.8792 1.79058 12.8792 1.79058C17.865 1.80308 20.2447 3.22747 20.8061 3.70722C22.6368 5.19647 23.5801 8.76566 22.8895 14.0116C22.2334 19.0982 18.3152 19.4201 17.59 19.6397C17.2814 19.7334 14.43 20.4007 10.8378 20.1811C10.8378 20.1811 8.16256 23.2456 7.32624 24.0347C7.19371 24.173 7.03896 24.2137 6.94019 24.1933C6.7986 24.1605 6.7558 23.9941 6.76403 23.7659L6.78955 19.5787C1.55022 18.2035 1.8589 13.0146 1.91488 10.3041C1.97908 7.59364 2.51495 5.37618 4.11021 3.87443C6.2578 2.03123 10.1167 1.78276 11.9128 1.77026H11.9145ZM12.3096 4.47997C12.2664 4.47956 12.2237 4.48725 12.1837 4.50261C12.1437 4.51796 12.1073 4.54068 12.0767 4.56944C12.046 4.5982 12.0216 4.63244 12.0049 4.67019C11.9882 4.70794 11.9796 4.74845 11.9795 4.78938C11.9795 4.96441 12.1293 5.1027 12.3096 5.1027C13.1257 5.08797 13.9369 5.22676 14.6962 5.51106C15.4556 5.79536 16.1482 6.21955 16.734 6.75916C17.93 7.86164 18.5128 9.34307 18.535 11.28C18.535 11.4511 18.6807 11.5933 18.8651 11.5933V11.5808C18.952 11.5811 19.0355 11.5487 19.0973 11.4907C19.1591 11.4327 19.1943 11.3539 19.1952 11.2714C19.2352 10.3597 19.0794 9.44981 18.7374 8.59702C18.3954 7.74422 17.8742 6.96634 17.2056 6.31067C15.9026 5.10192 14.2514 4.47919 12.3096 4.47919V4.47997ZM7.97076 5.19647C7.73777 5.16415 7.50014 5.20855 7.29743 5.32226H7.28014C6.80952 5.58412 6.38556 5.91509 6.02402 6.30285C5.72357 6.63258 5.56059 6.96622 5.51779 7.28735C5.49227 7.47878 5.50956 7.67021 5.56965 7.85304L5.59105 7.86555C5.92936 8.80941 6.37139 9.71734 6.91138 10.5721C7.60695 11.773 8.46297 12.8836 9.45819 13.8764L9.48782 13.9171L9.53474 13.9499L9.56437 13.9827L9.59895 14.0108C10.6486 14.9583 11.8215 15.7746 13.0891 16.44C14.5378 17.1886 15.4169 17.5425 15.9446 17.6894V17.6972C16.0993 17.7418 16.2401 17.7621 16.3817 17.7621C16.8313 17.7308 17.257 17.5575 17.5909 17.2698C17.9975 16.9266 18.3423 16.5225 18.6116 16.0736V16.0658C18.8643 15.6142 18.7787 15.1868 18.414 14.8977C17.6837 14.2917 16.894 13.7535 16.0557 13.2904C15.4943 13.0013 14.9239 13.1764 14.6926 13.4694L14.1995 14.0593C13.9468 14.3523 13.4875 14.3117 13.4875 14.3117L13.4743 14.3195C10.0492 13.4889 9.13552 10.1971 9.13552 10.1971C9.13552 10.1971 9.09271 9.74937 9.40962 9.52122L10.027 9.04928C10.3225 8.82113 10.5283 8.28044 10.2114 7.74678C9.72686 6.94993 9.16112 6.20015 8.52227 5.50822C8.38261 5.3451 8.18667 5.23412 7.96912 5.1949L7.97076 5.19647ZM12.8792 6.12471C12.4421 6.12471 12.4421 6.75135 12.8833 6.75135C13.4268 6.75971 13.9633 6.86967 14.462 7.07493C14.9607 7.28018 15.4119 7.57672 15.7898 7.94759C16.1346 8.30858 16.3995 8.73158 16.5689 9.19152C16.7383 9.65147 16.8087 10.139 16.776 10.6253C16.7775 10.7076 16.8129 10.786 16.8745 10.8438C16.9362 10.9017 17.0193 10.9343 17.106 10.9347L17.1192 10.9511C17.2066 10.9505 17.2901 10.9173 17.3519 10.8586C17.4137 10.8 17.4486 10.7207 17.4493 10.6378C17.4789 9.3962 17.0723 8.35467 16.2747 7.52019C15.4729 6.68571 14.3543 6.21769 12.9261 6.12471H12.8792ZM13.42 7.80929C12.9697 7.79679 12.9524 8.43593 13.3986 8.44843C14.4835 8.50156 15.0103 9.02194 15.0795 10.0924C15.081 10.1736 15.1159 10.2511 15.1768 10.3082C15.2378 10.3653 15.3198 10.3975 15.4054 10.3979H15.4186C15.4626 10.3961 15.5058 10.386 15.5457 10.3682C15.5855 10.3504 15.6212 10.3252 15.6508 10.2942C15.6803 10.2631 15.7029 10.2268 15.7175 10.1873C15.732 10.1478 15.7382 10.106 15.7355 10.0643C15.6581 8.66877 14.8564 7.88274 13.4332 7.81007H13.42V7.80929Z" />
	</symbol>
	<symbol id="svg-telegram" viewBox="0 0 25 25" xmlns="http://www.w3.org/2000/svg">
		<path fill-rule="evenodd" clip-rule="evenodd" d="M25 12.5C25 19.4031 19.4031 25 12.5 25C5.59687 25 0 19.4031 0 12.5C0 5.59687 5.59687 0 12.5 0C19.4031 0 25 5.59687 25 12.5ZM12.9479 9.22812C11.7323 9.73333 9.30208 10.7802 5.65833 12.3677C5.06667 12.6031 4.75625 12.8333 4.72812 13.0583C4.68021 13.4396 5.15729 13.5896 5.80521 13.7927C5.89375 13.8208 5.98542 13.849 6.07917 13.8802C6.71771 14.0875 7.57604 14.3302 8.02188 14.3396C8.42708 14.3479 8.87917 14.1812 9.37813 13.8396C12.7823 11.5406 14.5396 10.3792 14.65 10.3542C14.7281 10.3365 14.8365 10.3135 14.9094 10.3792C14.9823 10.4437 14.975 10.5667 14.9677 10.6C14.9198 10.801 13.051 12.5396 12.0823 13.4396C11.7802 13.7198 11.5667 13.9187 11.5229 13.9646C11.425 14.0656 11.325 14.1625 11.2292 14.2552C10.6354 14.826 10.1917 15.2552 11.2542 15.9552C11.7646 16.2917 12.1729 16.5698 12.5802 16.8469C13.025 17.15 13.4688 17.4521 14.0437 17.8292C14.1896 17.925 14.3292 18.024 14.4656 18.1208C14.9833 18.4906 15.449 18.8219 16.024 18.7698C16.3573 18.7385 16.7031 18.425 16.8781 17.4885C17.2917 15.274 18.1062 10.4781 18.2948 8.50104C18.3063 8.33689 18.2993 8.17197 18.274 8.00937C18.2588 7.87805 18.1949 7.75722 18.0948 7.67083C17.9458 7.54896 17.7146 7.52292 17.6104 7.525C17.1406 7.53333 16.4198 7.78437 12.9479 9.22812Z" />
	</symbol>
	<symbol id="svg-whatsapp" viewBox="0 0 25 25" xmlns="http://www.w3.org/2000/svg">
		<path fill-rule="evenodd" clip-rule="evenodd" d="M18.2279 14.9813C17.916 14.8261 16.3868 14.0781 16.1021 13.974C15.8174 13.8709 15.6102 13.8198 15.4019 14.1302C15.1946 14.4386 14.5991 15.1365 14.418 15.3427C14.2359 15.55 14.0548 15.575 13.7439 15.4209C13.4331 15.2646 12.4304 14.9386 11.2424 13.8844C10.3182 13.0636 9.6933 12.05 9.51222 11.7396C9.33115 11.4302 9.49234 11.2625 9.64829 11.1084C9.78855 10.9698 9.95916 10.7469 10.1151 10.5667C10.2711 10.3854 10.3224 10.2563 10.426 10.049C10.5306 9.84274 10.4783 9.66253 10.3998 9.50732C10.3224 9.35211 9.70063 7.82816 9.44105 7.20836C9.1888 6.60524 8.93236 6.68753 8.74187 6.67711C8.55974 6.66878 8.3525 6.6667 8.14526 6.6667C7.93802 6.6667 7.60099 6.74378 7.31629 7.0542C7.03055 7.36357 6.22774 8.11253 6.22774 9.63649C6.22774 11.1594 7.34141 12.6313 7.49737 12.8386C7.65332 13.0448 9.69016 16.1719 12.8103 17.5125C13.5535 17.8313 14.1323 18.0219 14.5834 18.1636C15.3286 18.4 16.0069 18.3667 16.5428 18.2865C17.1394 18.1979 18.3828 17.5375 18.6424 16.8146C18.9009 16.0917 18.9009 15.4719 18.8235 15.3427C18.746 15.2136 18.5388 15.1365 18.2269 14.9813H18.2279ZM12.5528 22.6927H12.5486C10.6954 22.6931 8.87623 22.1973 7.28175 21.2573L6.90494 21.0344L2.98827 22.0573L4.0339 18.2573L3.78793 17.8677C2.75186 16.2264 2.20357 14.3269 2.2064 12.3886C2.20849 6.71149 6.84947 2.09275 12.557 2.09275C15.3202 2.09275 17.9181 3.16566 19.8712 5.11149C20.8346 6.06626 21.5981 7.20166 22.1177 8.45201C22.6372 9.70235 22.9025 11.0428 22.8982 12.3959C22.8961 18.0729 18.2551 22.6927 12.5528 22.6927ZM21.3575 3.63337C20.2043 2.47808 18.8321 1.56206 17.3205 0.938375C15.809 0.314692 14.1881 -0.00424608 12.5518 4.26849e-05C5.69184 4.26849e-05 0.106761 5.55733 0.104668 12.3875C0.101489 14.5612 0.674454 16.6973 1.76575 18.5802L0 25L6.59827 23.2771C8.42354 24.2668 10.469 24.7854 12.5476 24.7854H12.5528C19.4128 24.7854 24.9978 19.2281 24.9999 12.3969C25.005 10.7691 24.6857 9.15638 24.0605 7.65215C23.4353 6.14791 22.5166 4.78198 21.3575 3.63337Z" />
	</symbol>
	<symbol id="svg-close" viewBox="0 0 313 307" xmlns="http://www.w3.org/2000/svg">
		<rect x="42.074" width="383" height="51" transform="rotate(45.0183 42.074 0)"></rect>
		<rect x="307.847" y="36.0996" width="383" height="51" transform="rotate(135 307.847 36.0996)"></rect>
	</symbol>
	<symbol id="svg-close_2" viewBox="0 0 9 9" xmlns="http://www.w3.org/2000/svg">
		<path d="M8.875 1.00625L7.99375 0.125L4.5 3.61875L1.00625 0.125L0.125 1.00625L3.61875 4.5L0.125 7.99375L1.00625 8.875L4.5 5.38125L7.99375 8.875L8.875 7.99375L5.38125 4.5L8.875 1.00625Z"></path>
	</symbol>
	<symbol id="svg-arrows" viewBox="0 0 6 6" xmlns="http://www.w3.org/2000/svg">
		<path d="M5.916 3.178L4.04 5.95H3.102L4.656 3.57H0.036V2.8H4.656L3.102 0.434H4.04L5.916 3.178Z" />
	</symbol>
	<symbol id="svg-close_3" viewBox="0 0 14 14" xmlns="http://www.w3.org/2000/svg">
		<path d="M8.46 7L14 12.54V14H12.54L7 8.46L1.46 14H0V12.54L5.54 7L0 1.46V0H1.46L7 5.54L12.54 0H14V1.46L8.46 7Z" fill="white" />
	</symbol>
	<symbol id="svg-description" viewBox="0 0 17 17" xmlns="http://www.w3.org/2000/svg">
		<path fill-rule="evenodd" clip-rule="evenodd" d="M0 0.996045V3.25394C0 3.78682 0.523093 4.25009 0.962972 4.25009H16.0371C16.2852 4.25009 16.5627 4.07579 16.6942 3.94432C16.8258 3.81275 17 3.53526 17 3.28709V0.962886C17 0.524167 16.5377 0 16.0039 0H0.99613C0.483771 0 0 0.483675 0 0.996045Z" />
		<path fill-rule="evenodd" clip-rule="evenodd" d="M0 7.40464C0 7.65036 0.119561 7.80309 0.398431 7.80309H10.9903C11.4485 7.80309 11.4485 7.07251 10.9903 7.07251H0.398431C0.184178 7.07251 0 7.19686 0 7.40464Z" />
		<path fill-rule="evenodd" clip-rule="evenodd" d="M0 9.52946C0 9.77515 0.119561 9.92785 0.398431 9.92785H10.9903C11.4485 9.92785 11.4485 9.19739 10.9903 9.19739H0.398431C0.184178 9.19739 0 9.32172 0 9.52946Z" />
		<path fill-rule="evenodd" clip-rule="evenodd" d="M0 13.7794C0 14.025 0.119561 14.1777 0.398431 14.1777H10.9903C11.4485 14.1777 11.4485 13.4474 10.9903 13.4474H0.398431C0.184178 13.4474 0 13.5717 0 13.7794Z" />
		<path fill-rule="evenodd" clip-rule="evenodd" d="M0 15.9045C0 16.1502 0.119561 16.303 0.398431 16.303H10.9903C11.4485 16.303 11.4485 15.5725 10.9903 15.5725H0.398431C0.184178 15.5725 0 15.6969 0 15.9045Z" />
		<path fill-rule="evenodd" clip-rule="evenodd" d="M12.75 8.36718V8.63277C12.75 9.63551 13.7395 10.625 14.7422 10.625H15.0078C16.0105 10.625 17 9.63551 17 8.63277V8.36718C17 7.36444 16.0105 6.37488 15.0078 6.37488H14.7422C13.7395 6.37488 12.75 7.36444 12.75 8.36718Z" />
		<path fill-rule="evenodd" clip-rule="evenodd" d="M12.75 14.7422V15.0078C12.75 16.0104 13.7395 17 14.7422 17H15.0078C16.0105 17 17 16.0104 17 15.0078V14.7422C17 13.7395 16.0105 12.75 15.0078 12.75H14.7422C13.7395 12.75 12.75 13.7395 12.75 14.7422Z" />
	</symbol>
	<symbol id="svg-detali" viewBox="0 0 17 17" xmlns="http://www.w3.org/2000/svg">
		<path fill-rule="evenodd" clip-rule="evenodd" d="M3.2334 15.3578C3.2334 16.1211 3.25129 16.3342 4.13757 16.527C5.06628 16.7289 6.75352 16.9705 7.71431 16.9672C7.84281 16.9668 8.00249 16.9593 8.12758 16.9696C8.98917 17.0411 8.46885 16.9638 9.23861 16.9671C9.98102 16.9703 12.9918 16.676 13.4515 16.3324C13.8304 16.0491 13.7658 15.7917 13.7658 15.3578C13.7658 14.5152 13.041 13.8625 12.5193 13.5178C12.0554 13.2114 10.7567 12.6449 10.255 12.6449C9.95322 12.6449 9.12343 13.5128 7.55078 12.9915C6.81222 12.7467 7.05234 12.3847 5.55585 12.9796C4.57597 13.369 3.2334 14.156 3.2334 15.3578Z" />
		<path fill-rule="evenodd" clip-rule="evenodd" d="M8.13005 3.21865C7.72831 3.21865 7.79677 3.1399 7.35629 2.70131C7.22824 2.574 6.83656 2.25683 6.83656 2.06903C6.83656 1.88741 7.04637 1.70123 7.25234 1.70123C7.44678 1.70123 7.89776 2.26699 8.08376 2.39106C8.35376 2.24874 9.60378 1.24145 9.74676 1.24145C10.0675 1.24145 10.2588 1.57157 10.0607 1.82737L8.13005 3.21865ZM6.28223 0.689678V3.81634C6.28223 4.15514 6.66016 4.46009 7.02138 4.46009H9.97772C10.3389 4.46009 10.7169 4.15514 10.7169 3.81634V0.735597C10.7169 0.47465 10.5941 0.293916 10.4427 0.180883C10.2757 0.0559284 10.0482 0 9.74676 0H7.25234C6.74562 0 6.28223 0.22739 6.28223 0.689678Z" />
		<path fill-rule="evenodd" clip-rule="evenodd" d="M14.4132 7.81691C14.0117 7.81691 14.08 7.73817 13.6395 7.29958C13.5116 7.17227 13.1198 6.8551 13.1198 6.66745C13.1198 6.48568 13.3296 6.2995 13.5355 6.2995C13.73 6.2995 14.181 6.86526 14.3671 6.98933C14.6371 6.84701 15.887 5.83972 16.0301 5.83972C16.3507 5.83972 16.542 6.16984 16.3439 6.42578C16.2603 6.53366 16.1369 6.59386 16.0304 6.66774C15.925 6.74089 15.8227 6.82228 15.7134 6.90396C15.4928 7.06866 15.2978 7.20259 15.0727 7.36978C14.9631 7.45117 14.515 7.81691 14.4132 7.81691ZM12.5654 5.28794V8.41475C12.5654 8.75341 12.9434 9.05836 13.3046 9.05836H16.2611C16.6221 9.05836 17.0001 8.75341 17.0001 8.41475V5.33386C17.0001 4.79136 16.5278 4.59827 16.0301 4.59827H13.5355C13.0288 4.59827 12.5654 4.82566 12.5654 5.28794Z" />
		<path fill-rule="evenodd" clip-rule="evenodd" d="M1.84767 7.81691C1.44608 7.81691 1.51454 7.73817 1.07391 7.29958C0.946015 7.17227 0.554331 6.8551 0.554331 6.66745C0.554331 6.48568 0.763997 6.2995 0.969968 6.2995C1.1644 6.2995 1.61553 6.86526 1.80154 6.98933C2.07153 6.84701 3.32155 5.83972 3.46453 5.83972C3.78524 5.83972 3.97657 6.16984 3.77844 6.42578C3.69475 6.53366 3.57143 6.59386 3.46483 6.66774C3.2281 6.83214 1.95561 7.81691 1.84767 7.81691ZM0 5.28794V8.41475C0 8.75341 0.377932 9.05836 0.739009 9.05836H3.69549C4.05671 9.05836 4.43465 8.75341 4.43465 8.41475V5.33386C4.43465 4.79136 3.96223 4.59827 3.46453 4.59827H0.969968C0.463396 4.59827 0 4.82566 0 5.28794Z" />
		<path fill-rule="evenodd" clip-rule="evenodd" d="M6.28223 10.0699C6.28223 10.7467 6.44236 11.3709 6.96312 11.8291C8.17026 12.891 9.80855 12.487 10.4716 11.251C10.937 10.3832 10.7442 9.33411 10.0364 8.63207C8.5612 7.16854 6.28223 8.47901 6.28223 10.0699Z" />
	</symbol>
	<symbol id="svg-marker" viewBox="0 0 13 19" xmlns="http://www.w3.org/2000/svg">
		<path fill-rule="evenodd" clip-rule="evenodd" d="M6.31832 4.2383C6.83411 4.2383 7.07716 4.23027 7.56601 4.48101C8.03682 4.72253 8.4386 5.17888 8.63798 5.66759C8.93895 6.40493 8.84142 7.25962 8.38891 7.89264L8.12612 8.21283C7.9772 8.3532 7.64563 8.59025 7.45527 8.6705C6.80613 8.94452 6.22288 8.94136 5.57047 8.68102C5.38756 8.60801 5.20151 8.47975 5.0556 8.35872C4.78208 8.13193 4.58754 7.9221 4.41992 7.57336C4.2799 7.28211 4.23035 6.9977 4.18432 6.6387C4.14915 6.36468 4.27938 5.8736 4.35142 5.69364C4.66677 4.90473 5.48104 4.2383 6.31832 4.2383ZM6.32159 0H6.76651C7.23078 0.0157861 7.68669 0.0819558 8.11304 0.203772C8.34211 0.269152 8.48802 0.298358 8.69969 0.38084C8.80952 0.423594 8.87842 0.445035 8.99073 0.489894C9.31929 0.62105 9.94843 0.96716 10.2302 1.17922C10.4719 1.36115 10.8496 1.65162 11.0665 1.87223L11.7862 2.71928L12.3587 3.67776C12.5162 3.99322 12.6887 4.44075 12.7748 4.79357C13.0136 5.76981 12.9999 5.80559 12.9999 6.7959C12.9999 8.35741 12.0474 10.5934 11.2685 11.9958C10.6069 13.187 10.2198 13.761 9.51396 14.834C9.0323 15.5664 6.77933 18.5186 6.49993 18.7069L5.4311 17.4439C4.85779 16.7098 3.99671 15.6111 3.47138 14.8122C2.8357 13.8453 2.27468 13.0143 1.71863 11.972L0.959398 10.4342C0.260442 8.74009 0 8.03484 0 6.10171C0 5.85545 0.0481139 5.62878 0.0875985 5.38607C0.403868 3.44149 1.6173 1.85499 3.27958 0.85179C4.1247 0.341768 5.22805 0.0369657 6.32159 0Z" />
	</symbol>
	<symbol id="svg-lens" xmlns="http://www.w3.org/2000/svg" viewBox="0 0 485.213 485.213">
		<path d="M471.882,407.567L360.567,296.243c-16.586,25.795-38.536,47.734-64.331,64.321l111.324,111.324c17.772,17.768,46.587,17.768,64.321,0C489.654,454.149,489.654,425.334,471.882,407.567z" />
		<path d="M363.909,181.955C363.909,81.473,282.44,0,181.956,0C81.474,0,0.001,81.473,0.001,181.955s81.473,181.951,181.955,181.951C282.44,363.906,363.909,282.437,363.909,181.955z M181.956,318.416c-75.252,0-136.465-61.208-136.465-136.46c0-75.252,61.213-136.465,136.465-136.465c75.25,0,136.468,61.213,136.468,136.465C318.424,257.208,257.206,318.416,181.956,318.416z" />
		<path d="M75.817,181.955h30.322c0-41.803,34.014-75.814,75.816-75.814V75.816C123.438,75.816,75.817,123.437,75.817,181.955z" />
	</symbol>
</svg>